<svg xmlns="http://www.w3.org/2000/svg" xmlns:oryx="http://oryx-editor.org" id="_69AA5038-5203-4BB2-BAE9-07EC2C3ACA06" width="923" height="251.25" xmlns:xlink="http://www.w3.org/1999/xlink" xmlns:svg="http://www.w3.org/2000/svg"><defs><marker id="_2D6C0114-22F8-40DB-ADF2-3B8C99DD8E17start" refX="1" refY="5" markerUnits="userSpaceOnUse" markerWidth="17" markerHeight="11" orient="auto" fill="#000000" stroke="#000000"> 	  		<path id="_2D6C0114-22F8-40DB-ADF2-3B8C99DD8E17conditional" d="M 0 5 L 8 0 L 16 5 L 8 10 L 0 5" fill="white" stroke="#000000" stroke-width="1" display="none"/> 			<path id="_2D6C0114-22F8-40DB-ADF2-3B8C99DD8E17default" d="M 5 0 L 11 10" fill="white" stroke="#000000" stroke-width="1" display="none"/> 	  	</marker><marker id="_2D6C0114-22F8-40DB-ADF2-3B8C99DD8E17end" refX="15" refY="6" markerUnits="userSpaceOnUse" markerWidth="15" markerHeight="12" orient="auto" fill="#000000" stroke="#000000"> 	  		<path id="_2D6C0114-22F8-40DB-ADF2-3B8C99DD8E17frame2" d="M 0 1 L 15 6 L 0 11z" fill="#000000" stroke="#000000" stroke-linejoin="round" stroke-width="2"/> 	  	</marker><marker id="_4558810E-DAE0-4DA3-A29D-9D16CA2A9041start" refX="1" refY="5" markerUnits="userSpaceOnUse" markerWidth="17" markerHeight="11" orient="auto" fill="#000000" stroke="#000000"> 	  		<path id="_4558810E-DAE0-4DA3-A29D-9D16CA2A9041conditional" d="M 0 5 L 8 0 L 16 5 L 8 10 L 0 5" fill="white" stroke="#000000" stroke-width="1" display="none"/> 			<path id="_4558810E-DAE0-4DA3-A29D-9D16CA2A9041default" d="M 5 0 L 11 10" fill="white" stroke="#000000" stroke-width="1" display="none"/> 	  	</marker><marker id="_4558810E-DAE0-4DA3-A29D-9D16CA2A9041end" refX="15" refY="6" markerUnits="userSpaceOnUse" markerWidth="15" markerHeight="12" orient="auto" fill="#000000" stroke="#000000"> 	  		<path id="_4558810E-DAE0-4DA3-A29D-9D16CA2A9041frame2" d="M 0 1 L 15 6 L 0 11z" fill="#000000" stroke="#000000" stroke-linejoin="round" stroke-width="2"/> 	  	</marker><marker id="_A38020F8-3C8F-4FB3-AC32-2FFE2D75E779start" refX="1" refY="5" markerUnits="userSpaceOnUse" markerWidth="17" markerHeight="11" orient="auto" fill="#000000" stroke="#000000"> 	  		<path id="_A38020F8-3C8F-4FB3-AC32-2FFE2D75E779conditional" d="M 0 5 L 8 0 L 16 5 L 8 10 L 0 5" fill="white" stroke="#000000" stroke-width="1" display="none"/> 			<path id="_A38020F8-3C8F-4FB3-AC32-2FFE2D75E779default" d="M 5 0 L 11 10" fill="white" stroke="#000000" stroke-width="1" display="none"/> 	  	</marker><marker id="_A38020F8-3C8F-4FB3-AC32-2FFE2D75E779end" refX="15" refY="6" markerUnits="userSpaceOnUse" markerWidth="15" markerHeight="12" orient="auto" fill="#000000" stroke="#000000"> 	  		<path id="_A38020F8-3C8F-4FB3-AC32-2FFE2D75E779frame2" d="M 0 1 L 15 6 L 0 11z" fill="#000000" stroke="#000000" stroke-linejoin="round" stroke-width="2"/> 	  	</marker><marker id="_15390FC8-94FA-4A5C-A978-60D0CA8C694Fstart" refX="1" refY="5" markerUnits="userSpaceOnUse" markerWidth="17" markerHeight="11" orient="auto" fill="#000000" stroke="#000000"> 	  		<path id="_15390FC8-94FA-4A5C-A978-60D0CA8C694Fconditional" d="M 0 5 L 8 0 L 16 5 L 8 10 L 0 5" fill="white" stroke="#000000" stroke-width="1" display="none"/> 			<path id="_15390FC8-94FA-4A5C-A978-60D0CA8C694Fdefault" d="M 5 0 L 11 10" fill="white" stroke="#000000" stroke-width="1" display="none"/> 	  	</marker><marker id="_15390FC8-94FA-4A5C-A978-60D0CA8C694Fend" refX="15" refY="6" markerUnits="userSpaceOnUse" markerWidth="15" markerHeight="12" orient="auto" fill="#000000" stroke="#000000"> 	  		<path id="_15390FC8-94FA-4A5C-A978-60D0CA8C694Fframe2" d="M 0 1 L 15 6 L 0 11z" fill="#000000" stroke="#000000" stroke-linejoin="round" stroke-width="2"/> 	  	</marker></defs><g stroke="none" font-family="Verdana, sans-serif" font-size-adjust="none" font-style="normal" font-variant="normal" font-weight="normal" line-heigth="normal" font-size="12"><g class="stencils" transform="translate(15, 16.25)"><g class="me"/><g class="children"><g id="_C964B4E6-4989-4D8B-B917-5CF458101F3F" bpmn2nodeid="processStartEvent"><g class="stencils" transform="translate(120, 154)"><g class="me"><g pointer-events="fill" id="_C964B4E6-4989-4D8B-B917-5CF458101F3F">        <defs id="_C964B4E6-4989-4D8B-B917-5CF458101F3F__C964B4E6-4989-4D8B-B917-5CF458101F3F_5"> 		<radialGradient id="_C964B4E6-4989-4D8B-B917-5CF458101F3Fbackground" cx="10%" cy="10%" r="100%" fx="10%" fy="10%"> 			<stop offset="0%" stop-color="#ffffff" stop-opacity="1" id="_C964B4E6-4989-4D8B-B917-5CF458101F3F__C964B4E6-4989-4D8B-B917-5CF458101F3F_6"/> 			<stop id="_C964B4E6-4989-4D8B-B917-5CF458101F3Ffill_el" offset="100%" stop-color="#9acd32" stop-opacity="1"/> 		</radialGradient> 	</defs> 	     <circle id="_C964B4E6-4989-4D8B-B917-5CF458101F3Fbg_frame" cx="15" cy="15" r="15" stroke="#000000" fill="url(#_C964B4E6-4989-4D8B-B917-5CF458101F3Fbackground) white" stroke-width="1" style="stroke-dasharray: 5.5, 3"/>      <circle id="_C964B4E6-4989-4D8B-B917-5CF458101F3Fframe" cx="15" cy="15" r="15" stroke="#000000" fill="none" stroke-width="1" display="inherit"/>  	<text font-size="11" id="_C964B4E6-4989-4D8B-B917-5CF458101F3Ftext_name" x="15" y="32" oryx:align="top center" stroke="black" stroke-width="0pt" letter-spacing="-0.01px" fill="#000000" text-anchor="middle" transform="rotate(0 15 32)" visibility="inherit" oryx:fontSize="11"/>   </g></g><g class="children" style="overflow:hidden"/><g class="edge"/></g><g class="controls"><g class="dockers"/><g class="magnets" transform="translate(120, 154)"><g pointer-events="all" display="none" transform="translate(7, 7)"><circle cx="8" cy="8" r="4" stroke="none" fill="red" fill-opacity="0.3"/></g></g></g></g><g id="_C9CE8AE8-DBC3-4505-A426-0D4E157FB027" bpmn2nodeid="_FB9CFC3C-F97F-47A5-9A39-C95E4CB282B2"><g class="stencils" transform="translate(270, 129)"><g class="me"><g pointer-events="fill" oryx:minimumSize="50 40" id="_C9CE8AE8-DBC3-4505-A426-0D4E157FB027">   	<defs id="_C9CE8AE8-DBC3-4505-A426-0D4E157FB027__C9CE8AE8-DBC3-4505-A426-0D4E157FB027_17"> 		<radialGradient id="_C9CE8AE8-DBC3-4505-A426-0D4E157FB027background" cx="10%" cy="10%" r="100%" fx="10%" fy="10%"> 			<stop offset="0%" stop-color="#ffffff" stop-opacity="1" id="_C9CE8AE8-DBC3-4505-A426-0D4E157FB027__C9CE8AE8-DBC3-4505-A426-0D4E157FB027_18"/> 			<stop id="_C9CE8AE8-DBC3-4505-A426-0D4E157FB027fill_el" offset="100%" stop-color="#fafad2" stop-opacity="1"/> 		</radialGradient> 		<radialGradient id="_C9CE8AE8-DBC3-4505-A426-0D4E157FB027borderbackground" cx="10%" cy="10%" r="100%" fx="10%" fy="10%"> 			<stop offset="0%" stop-color="#ffffff" stop-opacity="1" id="_C9CE8AE8-DBC3-4505-A426-0D4E157FB027__C9CE8AE8-DBC3-4505-A426-0D4E157FB027_19"/> 			<stop id="_C9CE8AE8-DBC3-4505-A426-0D4E157FB027fill_border" offset="100%" stop-color="#000000" stop-opacity="1" stroke="#000000"/> 		</radialGradient> 	</defs> 	 	<rect id="_C9CE8AE8-DBC3-4505-A426-0D4E157FB027text_frame" oryx:anchors="bottom top right left" x="1" y="1" width="94" height="79" rx="10" ry="10" stroke="none" stroke-width="0" fill="none"/> 	<rect id="_C9CE8AE8-DBC3-4505-A426-0D4E157FB027bg_frame" oryx:resize="vertical horizontal" x="0" y="0" width="100" height="80" rx="10" ry="10" stroke="#000000" stroke-width="1" fill="url(#_C9CE8AE8-DBC3-4505-A426-0D4E157FB027background) #ffffcc"/> 		<text font-size="12" id="_C9CE8AE8-DBC3-4505-A426-0D4E157FB027text_name" x="50" y="40" oryx:align="middle center" oryx:fittoelem="text_frame" stroke="black" text-anchor="middle" stroke-width="0pt" letter-spacing="-0.01px" fill="#000000" transform="rotate(0 50 40)" visibility="inherit" oryx:fontSize="12"><tspan x="50" y="40" dy="-1">Captura de </tspan><tspan x="50" y="40" dy="11">datos</tspan></text>     <g id="_C9CE8AE8-DBC3-4505-A426-0D4E157FB027manualTask" transform="scale(0.7,0.7) translate(8,8)" display="none">     	<path oryx:anchors="top left" id="_C9CE8AE8-DBC3-4505-A426-0D4E157FB027frame" style="opacity:1;fill:none;fill-opacity:1;stroke-width:1" d="M0.5,3.751l4.083-3.25c0,0,11.166,0.083,12.083,0.083s-2.417,2.917-1.5,2.917     s11.667,0,12.584,0c1.166,1.708-0.168,3.167-0.834,3.667s0.875,1.917-1,4.417c-0.75,0.25,0.75,1.875-1.333,3.333     c-1.167,0.583,0.583,1.542-1.25,2.833c-1.167,0-20.833,0.083-20.833,0.083l-2-1.333V3.751z" stroke="#000000"/> 		<path id="_C9CE8AE8-DBC3-4505-A426-0D4E157FB027frame2" oryx:anchors="top left" style="opacity:1;fill:none;stroke-width:2" d="M 13.5 7 L 27 7" stroke="#000000"/> 		<path id="_C9CE8AE8-DBC3-4505-A426-0D4E157FB027frame3" oryx:anchors="top left" style="opacity:1;fill:none;stroke-width:2" d="M 13.5 11 L 26 11" stroke="#000000"/> 		<path id="_C9CE8AE8-DBC3-4505-A426-0D4E157FB027frame4" oryx:anchors="top left" style="opacity:1;fill:none;stroke-width:1.5" d="M 14 14.5 L 25 14.5" stroke="#000000"/> 		<path id="_C9CE8AE8-DBC3-4505-A426-0D4E157FB027frame5" oryx:anchors="top left" style="opacity:1;fill:none;stroke-width:1.5" d="M 8.2 3.1 L 15 3.1" stroke="#000000"/> 	</g> 	 	<g id="_C9CE8AE8-DBC3-4505-A426-0D4E157FB027businessRuleTask" transform="scale(0.7,0.7) translate(8,8)" display="none"> 		<rect id="_C9CE8AE8-DBC3-4505-A426-0D4E157FB027frame6" oryx:anchors="top left" x="0" y="0" width="22" height="4" style="opacity:1;fill:#B3B1B3;fill-opacity:1;" stroke="#000000"/> 		<rect id="_C9CE8AE8-DBC3-4505-A426-0D4E157FB027frame7" oryx:anchors="top left" x="0" y="4" style="opacity:1;fill:none;" width="22" height="12" stroke="#000000"/> 		<path id="_C9CE8AE8-DBC3-4505-A426-0D4E157FB027frame8" oryx:anchors="top left" style="opacity:1;fill:none;" d="M 0 10 L 22 10" stroke="#000000"/> 		<path id="_C9CE8AE8-DBC3-4505-A426-0D4E157FB027frame9" oryx:anchors="top left" style="opacity:1; fill:none;" d="M 7 4 L 7 16" stroke="#000000"/> 	</g> 	 	<g id="_C9CE8AE8-DBC3-4505-A426-0D4E157FB027scriptTask" transform="scale(0.7,0.7) translate(8,8)" display="none"> 		<path oryx:anchors="top left" id="_C9CE8AE8-DBC3-4505-A426-0D4E157FB027frame10" style="opacity:1;fill:none;" stroke="#000000" d="M6.402,0.5h14.5c0,0-5.833,2.833-5.833,5.583s4.417,6,4.417,9.167    s-4.167,5.083-4.167,5.083H0.235c0,0,5-2.667,5-5s-4.583-6.75-4.583-9.25S6.402,0.5,6.402,0.5z"/> 		<path oryx:anchors="top left" id="_C9CE8AE8-DBC3-4505-A426-0D4E157FB027frame11" style="opacity:1;fill:none;stroke-width:1.5" d="M 3.5 4.5 L 13.5 4.5" stroke="#000000"/> 		<path oryx:anchors="top left" id="_C9CE8AE8-DBC3-4505-A426-0D4E157FB027frame12" style="opacity:1;fill:none;stroke-width:1.5" d="M 3.8 8.5 L 13.8 8.5" stroke="#000000"/> 		<path oryx:anchors="top left" id="_C9CE8AE8-DBC3-4505-A426-0D4E157FB027frame13" style="opacity:1;fill:none;stroke-width:1.5" d="M 6.3 12.5 L 16.3 12.5" stroke="#000000"/> 		<path oryx:anchors="top left" id="_C9CE8AE8-DBC3-4505-A426-0D4E157FB027frame14" style="opacity:1;fill:none;stroke-width:1.5" d="M 6.5 16.5 L 16.5 16.5" stroke="#000000"/> 	</g> 	 	<g id="_C9CE8AE8-DBC3-4505-A426-0D4E157FB027userTask" transform="scale(0.7,0.7) translate(8,8)" display="inherit"> 		<path id="_C9CE8AE8-DBC3-4505-A426-0D4E157FB027frame15" oryx:anchors="top left" style="opacity:1;fill:#F4F6F7" stroke="#000000" d="M0.585,24.167h24.083v-7.833c0,0-2.333-3.917-7.083-5.167h-9.25    c-4.417,1.333-7.833,5.75-7.833,5.75L0.585,24.167z"/> 		<path id="_C9CE8AE8-DBC3-4505-A426-0D4E157FB027frame16" oryx:anchors="top left" style="opacity:1;fill:none" d="M 6 20 L 6 24" stroke="#000000"/> 		<path id="_C9CE8AE8-DBC3-4505-A426-0D4E157FB027frame17" oryx:anchors="top left" style="opacity:1;fill:none" d="M 20 20 L 20 24" stroke="#000000"/> 		<circle id="_C9CE8AE8-DBC3-4505-A426-0D4E157FB027frame18" oryx:anchors="top left" fill="black" cx="13.002" cy="5.916" r="5.417" stroke="#000000"/> 		<path id="_C9CE8AE8-DBC3-4505-A426-0D4E157FB027frame19" oryx:anchors="top left" style="opacity:1;fill:#F0EFF0;" stroke="#000000" d="M8.043,7.083c0,0,2.814-2.426,5.376-1.807s4.624-0.693,4.624-0.693    c0.25,1.688,0.042,3.75-1.458,5.584c0,0,1.083,0.75,1.083,1.5s0.125,1.875-1,3s-5.5,1.25-6.75,0S8.668,12.834,8.668,12    s0.583-1.25,1.25-1.917C8.835,9.5,7.419,7.708,8.043,7.083z"/> 	</g> 	 	<g id="_C9CE8AE8-DBC3-4505-A426-0D4E157FB027serviceTask" transform="scale(0.7,0.7) translate(8,8)" display="none"> 		<polygon oryx:anchors="top left" id="_C9CE8AE8-DBC3-4505-A426-0D4E157FB027frame20" style="opacity:1;fill:#ffffff" stroke="#000000" points="15.392,5.064 17.954,2.502 20.347,4.895 17.786,7.455     18.729,9.732 22.353,9.732 22.353,13.115 18.731,13.115 17.788,15.392 20.351,17.955 17.958,20.347 15.397,17.786 13.12,18.729     13.12,22.353 9.737,22.353 9.737,18.731 7.46,17.788 4.897,20.35 2.506,17.958 5.066,15.397 4.124,13.12 0.5,13.12 0.5,9.737     4.121,9.737 5.065,7.461 2.503,4.898 4.895,2.506 7.455,5.066 9.732,4.125 9.732,0.5 13.116,0.5 13.116,4.121 "/> 		<circle oryx:anchors="top left" id="_C9CE8AE8-DBC3-4505-A426-0D4E157FB027frame21" style="opacity:1;fill:none" stroke="#000000" cx="11.427" cy="11.426" r="3.714"/> 		<polygon oryx:anchors="top left" id="_C9CE8AE8-DBC3-4505-A426-0D4E157FB027frame22" style="opacity:1;fill:#ffffff" stroke="#000000" points="21.392,11.064 23.954,8.502 26.347,10.895 23.786,13.455     24.729,15.732 28.353,15.732 28.353,19.115 24.731,19.115 23.788,21.392 26.351,23.955 23.958,26.347 21.397,23.786 19.12,24.729     19.12,28.353 15.737,28.353 15.737,24.731 13.46,23.788 10.897,26.35 8.506,23.958 11.066,21.397 10.124,19.12 6.5,19.12     6.5,15.737 10.121,15.737 11.065,13.461 8.503,10.898 10.895,8.506 13.455,11.066 15.732,10.125 15.732,6.5 19.116,6.5     19.116,10.121 "/> 		<circle oryx:anchors="top left" id="_C9CE8AE8-DBC3-4505-A426-0D4E157FB027frame23" style="opacity:1;fill:none;" stroke="#000000" cx="17.427" cy="17.426" r="3.714"/> 	</g> 	 	<g id="_C9CE8AE8-DBC3-4505-A426-0D4E157FB027sendTask" display="none"> 		<path id="_C9CE8AE8-DBC3-4505-A426-0D4E157FB027stframe24" oryx:anchors="left top" stroke="#FFFFFF" fill="black" stroke-width="1" d="M8,11 L8,21 L24,21 L24,11 L16,17z"/> 		<path id="_C9CE8AE8-DBC3-4505-A426-0D4E157FB027stframe25" oryx:anchors="left top" stroke="#FFFFFF" fill="black" stroke-width="1" d="M7,10 L16,17 L25 10z"/> 	</g> 	 	<g id="_C9CE8AE8-DBC3-4505-A426-0D4E157FB027receiveTask" display="none"> 		<path id="_C9CE8AE8-DBC3-4505-A426-0D4E157FB027frame26" oryx:anchors="left top" stroke="#000000" fill="none" stroke-width="1" d="M8,11 L8,21 L24,21 L24,11z M8,11 L16,17 L24,11"/> 	</g> 	 	<g id="_C9CE8AE8-DBC3-4505-A426-0D4E157FB027none" display="inherit"/>  	<g id="_C9CE8AE8-DBC3-4505-A426-0D4E157FB027sequential" display="none">         <path oryx:anchors="bottom" fill="none" stroke="#000000" stroke-width="2" d="M46,76h10M46,72h10 M46,68h10" id="_C9CE8AE8-DBC3-4505-A426-0D4E157FB027__C9CE8AE8-DBC3-4505-A426-0D4E157FB027_20"/>     </g>   </g></g><g class="children" style="overflow:hidden"/><g class="edge"/></g><g class="controls"><g class="dockers"/><g class="magnets" transform="translate(270, 129)"><g pointer-events="all" display="none" transform="translate(-7, 12)"><circle cx="8" cy="8" r="4" stroke="none" fill="red" fill-opacity="0.3"/></g><g pointer-events="all" display="none" transform="translate(-7, 32)"><circle cx="8" cy="8" r="4" stroke="none" fill="red" fill-opacity="0.3"/></g><g pointer-events="all" display="none" transform="translate(-7, 52)"><circle cx="8" cy="8" r="4" stroke="none" fill="red" fill-opacity="0.3"/></g><g pointer-events="all" display="none" transform="translate(17, 71)"><circle cx="8" cy="8" r="4" stroke="none" fill="red" fill-opacity="0.3"/></g><g pointer-events="all" display="none" transform="translate(42, 71)"><circle cx="8" cy="8" r="4" stroke="none" fill="red" fill-opacity="0.3"/></g><g pointer-events="all" display="none" transform="translate(67, 71)"><circle cx="8" cy="8" r="4" stroke="none" fill="red" fill-opacity="0.3"/></g><g pointer-events="all" display="none" transform="translate(91, 12)"><circle cx="8" cy="8" r="4" stroke="none" fill="red" fill-opacity="0.3"/></g><g pointer-events="all" display="none" transform="translate(91, 32)"><circle cx="8" cy="8" r="4" stroke="none" fill="red" fill-opacity="0.3"/></g><g pointer-events="all" display="none" transform="translate(91, 52)"><circle cx="8" cy="8" r="4" stroke="none" fill="red" fill-opacity="0.3"/></g><g pointer-events="all" display="none" transform="translate(17, -7)"><circle cx="8" cy="8" r="4" stroke="none" fill="red" fill-opacity="0.3"/></g><g pointer-events="all" display="none" transform="translate(42, -7)"><circle cx="8" cy="8" r="4" stroke="none" fill="red" fill-opacity="0.3"/></g><g pointer-events="all" display="none" transform="translate(67, -7)"><circle cx="8" cy="8" r="4" stroke="none" fill="red" fill-opacity="0.3"/></g><g pointer-events="all" display="none" transform="translate(42, 32)"><circle cx="8" cy="8" r="4" stroke="none" fill="red" fill-opacity="0.3"/></g></g></g></g><g id="_8A65B8CD-1383-4839-A6C6-23EF9BD09D7B" bpmn2nodeid="_91BCCB4D-F8CB-42CD-8CD1-5C83C5684D8D"><g class="stencils" transform="translate(465, 130)"><g class="me"><g pointer-events="fill" oryx:minimumSize="50 40" id="_8A65B8CD-1383-4839-A6C6-23EF9BD09D7B">   	<defs id="_8A65B8CD-1383-4839-A6C6-23EF9BD09D7B__8A65B8CD-1383-4839-A6C6-23EF9BD09D7B_17"> 		<radialGradient id="_8A65B8CD-1383-4839-A6C6-23EF9BD09D7Bbackground" cx="10%" cy="10%" r="100%" fx="10%" fy="10%"> 			<stop offset="0%" stop-color="#ffffff" stop-opacity="1" id="_8A65B8CD-1383-4839-A6C6-23EF9BD09D7B__8A65B8CD-1383-4839-A6C6-23EF9BD09D7B_18"/> 			<stop id="_8A65B8CD-1383-4839-A6C6-23EF9BD09D7Bfill_el" offset="100%" stop-color="#fafad2" stop-opacity="1"/> 		</radialGradient> 		<radialGradient id="_8A65B8CD-1383-4839-A6C6-23EF9BD09D7Bborderbackground" cx="10%" cy="10%" r="100%" fx="10%" fy="10%"> 			<stop offset="0%" stop-color="#ffffff" stop-opacity="1" id="_8A65B8CD-1383-4839-A6C6-23EF9BD09D7B__8A65B8CD-1383-4839-A6C6-23EF9BD09D7B_19"/> 			<stop id="_8A65B8CD-1383-4839-A6C6-23EF9BD09D7Bfill_border" offset="100%" stop-color="#000000" stop-opacity="1" stroke="#000000"/> 		</radialGradient> 	</defs> 	 	<rect id="_8A65B8CD-1383-4839-A6C6-23EF9BD09D7Btext_frame" oryx:anchors="bottom top right left" x="1" y="1" width="94" height="79" rx="10" ry="10" stroke="none" stroke-width="0" fill="none"/> 	<rect id="_8A65B8CD-1383-4839-A6C6-23EF9BD09D7Bbg_frame" oryx:resize="vertical horizontal" x="0" y="0" width="100" height="80" rx="10" ry="10" stroke="#000000" stroke-width="1" fill="url(#_8A65B8CD-1383-4839-A6C6-23EF9BD09D7Bbackground) #ffffcc"/> 		<text font-size="12" id="_8A65B8CD-1383-4839-A6C6-23EF9BD09D7Btext_name" x="50" y="40" oryx:align="middle center" oryx:fittoelem="text_frame" stroke="black" text-anchor="middle" stroke-width="0pt" letter-spacing="-0.01px" fill="#000000" transform="rotate(0 50 40)" visibility="inherit" oryx:fontSize="12"><tspan x="50" y="40" dy="5" id="ext-gen900">Suma de datos</tspan></text>     <g id="_8A65B8CD-1383-4839-A6C6-23EF9BD09D7BmanualTask" transform="scale(0.7,0.7) translate(8,8)" display="none">     	<path oryx:anchors="top left" id="_8A65B8CD-1383-4839-A6C6-23EF9BD09D7Bframe" style="opacity:1;fill:none;fill-opacity:1;stroke-width:1" d="M0.5,3.751l4.083-3.25c0,0,11.166,0.083,12.083,0.083s-2.417,2.917-1.5,2.917     s11.667,0,12.584,0c1.166,1.708-0.168,3.167-0.834,3.667s0.875,1.917-1,4.417c-0.75,0.25,0.75,1.875-1.333,3.333     c-1.167,0.583,0.583,1.542-1.25,2.833c-1.167,0-20.833,0.083-20.833,0.083l-2-1.333V3.751z" stroke="#000000"/> 		<path id="_8A65B8CD-1383-4839-A6C6-23EF9BD09D7Bframe2" oryx:anchors="top left" style="opacity:1;fill:none;stroke-width:2" d="M 13.5 7 L 27 7" stroke="#000000"/> 		<path id="_8A65B8CD-1383-4839-A6C6-23EF9BD09D7Bframe3" oryx:anchors="top left" style="opacity:1;fill:none;stroke-width:2" d="M 13.5 11 L 26 11" stroke="#000000"/> 		<path id="_8A65B8CD-1383-4839-A6C6-23EF9BD09D7Bframe4" oryx:anchors="top left" style="opacity:1;fill:none;stroke-width:1.5" d="M 14 14.5 L 25 14.5" stroke="#000000"/> 		<path id="_8A65B8CD-1383-4839-A6C6-23EF9BD09D7Bframe5" oryx:anchors="top left" style="opacity:1;fill:none;stroke-width:1.5" d="M 8.2 3.1 L 15 3.1" stroke="#000000"/> 	</g> 	 	<g id="_8A65B8CD-1383-4839-A6C6-23EF9BD09D7BbusinessRuleTask" transform="scale(0.7,0.7) translate(8,8)" display="none"> 		<rect id="_8A65B8CD-1383-4839-A6C6-23EF9BD09D7Bframe6" oryx:anchors="top left" x="0" y="0" width="22" height="4" style="opacity:1;fill:#B3B1B3;fill-opacity:1;" stroke="#000000"/> 		<rect id="_8A65B8CD-1383-4839-A6C6-23EF9BD09D7Bframe7" oryx:anchors="top left" x="0" y="4" style="opacity:1;fill:none;" width="22" height="12" stroke="#000000"/> 		<path id="_8A65B8CD-1383-4839-A6C6-23EF9BD09D7Bframe8" oryx:anchors="top left" style="opacity:1;fill:none;" d="M 0 10 L 22 10" stroke="#000000"/> 		<path id="_8A65B8CD-1383-4839-A6C6-23EF9BD09D7Bframe9" oryx:anchors="top left" style="opacity:1; fill:none;" d="M 7 4 L 7 16" stroke="#000000"/> 	</g> 	 	<g id="_8A65B8CD-1383-4839-A6C6-23EF9BD09D7BscriptTask" transform="scale(0.7,0.7) translate(8,8)" display="inherit"> 		<path oryx:anchors="top left" id="_8A65B8CD-1383-4839-A6C6-23EF9BD09D7Bframe10" style="opacity:1;fill:none;" stroke="#000000" d="M6.402,0.5h14.5c0,0-5.833,2.833-5.833,5.583s4.417,6,4.417,9.167    s-4.167,5.083-4.167,5.083H0.235c0,0,5-2.667,5-5s-4.583-6.75-4.583-9.25S6.402,0.5,6.402,0.5z"/> 		<path oryx:anchors="top left" id="_8A65B8CD-1383-4839-A6C6-23EF9BD09D7Bframe11" style="opacity:1;fill:none;stroke-width:1.5" d="M 3.5 4.5 L 13.5 4.5" stroke="#000000"/> 		<path oryx:anchors="top left" id="_8A65B8CD-1383-4839-A6C6-23EF9BD09D7Bframe12" style="opacity:1;fill:none;stroke-width:1.5" d="M 3.8 8.5 L 13.8 8.5" stroke="#000000"/> 		<path oryx:anchors="top left" id="_8A65B8CD-1383-4839-A6C6-23EF9BD09D7Bframe13" style="opacity:1;fill:none;stroke-width:1.5" d="M 6.3 12.5 L 16.3 12.5" stroke="#000000"/> 		<path oryx:anchors="top left" id="_8A65B8CD-1383-4839-A6C6-23EF9BD09D7Bframe14" style="opacity:1;fill:none;stroke-width:1.5" d="M 6.5 16.5 L 16.5 16.5" stroke="#000000"/> 	</g> 	 	<g id="_8A65B8CD-1383-4839-A6C6-23EF9BD09D7BuserTask" transform="scale(0.7,0.7) translate(8,8)" display="none"> 		<path id="_8A65B8CD-1383-4839-A6C6-23EF9BD09D7Bframe15" oryx:anchors="top left" style="opacity:1;fill:#F4F6F7" stroke="#000000" d="M0.585,24.167h24.083v-7.833c0,0-2.333-3.917-7.083-5.167h-9.25    c-4.417,1.333-7.833,5.75-7.833,5.75L0.585,24.167z"/> 		<path id="_8A65B8CD-1383-4839-A6C6-23EF9BD09D7Bframe16" oryx:anchors="top left" style="opacity:1;fill:none" d="M 6 20 L 6 24" stroke="#000000"/> 		<path id="_8A65B8CD-1383-4839-A6C6-23EF9BD09D7Bframe17" oryx:anchors="top left" style="opacity:1;fill:none" d="M 20 20 L 20 24" stroke="#000000"/> 		<circle id="_8A65B8CD-1383-4839-A6C6-23EF9BD09D7Bframe18" oryx:anchors="top left" fill="black" cx="13.002" cy="5.916" r="5.417" stroke="#000000"/> 		<path id="_8A65B8CD-1383-4839-A6C6-23EF9BD09D7Bframe19" oryx:anchors="top left" style="opacity:1;fill:#F0EFF0;" stroke="#000000" d="M8.043,7.083c0,0,2.814-2.426,5.376-1.807s4.624-0.693,4.624-0.693    c0.25,1.688,0.042,3.75-1.458,5.584c0,0,1.083,0.75,1.083,1.5s0.125,1.875-1,3s-5.5,1.25-6.75,0S8.668,12.834,8.668,12    s0.583-1.25,1.25-1.917C8.835,9.5,7.419,7.708,8.043,7.083z"/> 	</g> 	 	<g id="_8A65B8CD-1383-4839-A6C6-23EF9BD09D7BserviceTask" transform="scale(0.7,0.7) translate(8,8)" display="none"> 		<polygon oryx:anchors="top left" id="_8A65B8CD-1383-4839-A6C6-23EF9BD09D7Bframe20" style="opacity:1;fill:#ffffff" stroke="#000000" points="15.392,5.064 17.954,2.502 20.347,4.895 17.786,7.455     18.729,9.732 22.353,9.732 22.353,13.115 18.731,13.115 17.788,15.392 20.351,17.955 17.958,20.347 15.397,17.786 13.12,18.729     13.12,22.353 9.737,22.353 9.737,18.731 7.46,17.788 4.897,20.35 2.506,17.958 5.066,15.397 4.124,13.12 0.5,13.12 0.5,9.737     4.121,9.737 5.065,7.461 2.503,4.898 4.895,2.506 7.455,5.066 9.732,4.125 9.732,0.5 13.116,0.5 13.116,4.121 "/> 		<circle oryx:anchors="top left" id="_8A65B8CD-1383-4839-A6C6-23EF9BD09D7Bframe21" style="opacity:1;fill:none" stroke="#000000" cx="11.427" cy="11.426" r="3.714"/> 		<polygon oryx:anchors="top left" id="_8A65B8CD-1383-4839-A6C6-23EF9BD09D7Bframe22" style="opacity:1;fill:#ffffff" stroke="#000000" points="21.392,11.064 23.954,8.502 26.347,10.895 23.786,13.455     24.729,15.732 28.353,15.732 28.353,19.115 24.731,19.115 23.788,21.392 26.351,23.955 23.958,26.347 21.397,23.786 19.12,24.729     19.12,28.353 15.737,28.353 15.737,24.731 13.46,23.788 10.897,26.35 8.506,23.958 11.066,21.397 10.124,19.12 6.5,19.12     6.5,15.737 10.121,15.737 11.065,13.461 8.503,10.898 10.895,8.506 13.455,11.066 15.732,10.125 15.732,6.5 19.116,6.5     19.116,10.121 "/> 		<circle oryx:anchors="top left" id="_8A65B8CD-1383-4839-A6C6-23EF9BD09D7Bframe23" style="opacity:1;fill:none;" stroke="#000000" cx="17.427" cy="17.426" r="3.714"/> 	</g> 	 	<g id="_8A65B8CD-1383-4839-A6C6-23EF9BD09D7BsendTask" display="none"> 		<path id="_8A65B8CD-1383-4839-A6C6-23EF9BD09D7Bstframe24" oryx:anchors="left top" stroke="#FFFFFF" fill="black" stroke-width="1" d="M8,11 L8,21 L24,21 L24,11 L16,17z"/> 		<path id="_8A65B8CD-1383-4839-A6C6-23EF9BD09D7Bstframe25" oryx:anchors="left top" stroke="#FFFFFF" fill="black" stroke-width="1" d="M7,10 L16,17 L25 10z"/> 	</g> 	 	<g id="_8A65B8CD-1383-4839-A6C6-23EF9BD09D7BreceiveTask" display="none"> 		<path id="_8A65B8CD-1383-4839-A6C6-23EF9BD09D7Bframe26" oryx:anchors="left top" stroke="#000000" fill="none" stroke-width="1" d="M8,11 L8,21 L24,21 L24,11z M8,11 L16,17 L24,11"/> 	</g> 	 	<g id="_8A65B8CD-1383-4839-A6C6-23EF9BD09D7Bnone" display="inherit"/>  	<g id="_8A65B8CD-1383-4839-A6C6-23EF9BD09D7Bsequential" display="none">         <path oryx:anchors="bottom" fill="none" stroke="#000000" stroke-width="2" d="M46,76h10M46,72h10 M46,68h10" id="_8A65B8CD-1383-4839-A6C6-23EF9BD09D7B__8A65B8CD-1383-4839-A6C6-23EF9BD09D7B_20"/>     </g>   </g></g><g class="children" style="overflow:hidden"/><g class="edge"/></g><g class="controls"><g class="dockers"/><g class="magnets" transform="translate(465, 130)"><g pointer-events="all" display="none" transform="translate(-7, 12)"><circle cx="8" cy="8" r="4" stroke="none" fill="red" fill-opacity="0.3"/></g><g pointer-events="all" display="none" transform="translate(-7, 32)"><circle cx="8" cy="8" r="4" stroke="none" fill="red" fill-opacity="0.3"/></g><g pointer-events="all" display="none" transform="translate(-7, 52)"><circle cx="8" cy="8" r="4" stroke="none" fill="red" fill-opacity="0.3"/></g><g pointer-events="all" display="none" transform="translate(17, 71)"><circle cx="8" cy="8" r="4" stroke="none" fill="red" fill-opacity="0.3"/></g><g pointer-events="all" display="none" transform="translate(42, 71)"><circle cx="8" cy="8" r="4" stroke="none" fill="red" fill-opacity="0.3"/></g><g pointer-events="all" display="none" transform="translate(67, 71)"><circle cx="8" cy="8" r="4" stroke="none" fill="red" fill-opacity="0.3"/></g><g pointer-events="all" display="none" transform="translate(91, 12)"><circle cx="8" cy="8" r="4" stroke="none" fill="red" fill-opacity="0.3"/></g><g pointer-events="all" display="none" transform="translate(91, 32)"><circle cx="8" cy="8" r="4" stroke="none" fill="red" fill-opacity="0.3"/></g><g pointer-events="all" display="none" transform="translate(91, 52)"><circle cx="8" cy="8" r="4" stroke="none" fill="red" fill-opacity="0.3"/></g><g pointer-events="all" display="none" transform="translate(17, -7)"><circle cx="8" cy="8" r="4" stroke="none" fill="red" fill-opacity="0.3"/></g><g pointer-events="all" display="none" transform="translate(42, -7)"><circle cx="8" cy="8" r="4" stroke="none" fill="red" fill-opacity="0.3"/></g><g pointer-events="all" display="none" transform="translate(67, -7)"><circle cx="8" cy="8" r="4" stroke="none" fill="red" fill-opacity="0.3"/></g><g pointer-events="all" display="none" transform="translate(42, 32)"><circle cx="8" cy="8" r="4" stroke="none" fill="red" fill-opacity="0.3"/></g></g></g></g><g id="_0BCFBDB3-C48D-4BB0-A09D-857254A61E81" bpmn2nodeid="_DB954B8B-BEEF-4708-A112-9FC2BB8DE446"><g class="stencils" transform="translate(675, 129)"><g class="me"><g pointer-events="fill" oryx:minimumSize="50 40" id="_0BCFBDB3-C48D-4BB0-A09D-857254A61E81">   	<defs id="_0BCFBDB3-C48D-4BB0-A09D-857254A61E81__0BCFBDB3-C48D-4BB0-A09D-857254A61E81_17"> 		<radialGradient id="_0BCFBDB3-C48D-4BB0-A09D-857254A61E81background" cx="10%" cy="10%" r="100%" fx="10%" fy="10%"> 			<stop offset="0%" stop-color="#ffffff" stop-opacity="1" id="_0BCFBDB3-C48D-4BB0-A09D-857254A61E81__0BCFBDB3-C48D-4BB0-A09D-857254A61E81_18"/> 			<stop id="_0BCFBDB3-C48D-4BB0-A09D-857254A61E81fill_el" offset="100%" stop-color="#fafad2" stop-opacity="1"/> 		</radialGradient> 		<radialGradient id="_0BCFBDB3-C48D-4BB0-A09D-857254A61E81borderbackground" cx="10%" cy="10%" r="100%" fx="10%" fy="10%"> 			<stop offset="0%" stop-color="#ffffff" stop-opacity="1" id="_0BCFBDB3-C48D-4BB0-A09D-857254A61E81__0BCFBDB3-C48D-4BB0-A09D-857254A61E81_19"/> 			<stop id="_0BCFBDB3-C48D-4BB0-A09D-857254A61E81fill_border" offset="100%" stop-color="#000000" stop-opacity="1" stroke="#000000"/> 		</radialGradient> 	</defs> 	 	<rect id="_0BCFBDB3-C48D-4BB0-A09D-857254A61E81text_frame" oryx:anchors="bottom top right left" x="1" y="1" width="94" height="79" rx="10" ry="10" stroke="none" stroke-width="0" fill="none"/> 	<rect id="_0BCFBDB3-C48D-4BB0-A09D-857254A61E81bg_frame" oryx:resize="vertical horizontal" x="0" y="0" width="100" height="80" rx="10" ry="10" stroke="#000000" stroke-width="1" fill="url(#_0BCFBDB3-C48D-4BB0-A09D-857254A61E81background) #ffffcc"/> 		<text font-size="12" id="_0BCFBDB3-C48D-4BB0-A09D-857254A61E81text_name" x="50" y="40" oryx:align="middle center" oryx:fittoelem="text_frame" stroke="black" text-anchor="middle" stroke-width="0pt" letter-spacing="-0.01px" fill="#000000" transform="rotate(0 50 40)" visibility="inherit" oryx:fontSize="12"><tspan x="50" y="40" dy="-1">mostrar </tspan><tspan x="50" y="40" dy="11">resultado</tspan></text>     <g id="_0BCFBDB3-C48D-4BB0-A09D-857254A61E81manualTask" transform="scale(0.7,0.7) translate(8,8)" display="none">     	<path oryx:anchors="top left" id="_0BCFBDB3-C48D-4BB0-A09D-857254A61E81frame" style="opacity:1;fill:none;fill-opacity:1;stroke-width:1" d="M0.5,3.751l4.083-3.25c0,0,11.166,0.083,12.083,0.083s-2.417,2.917-1.5,2.917     s11.667,0,12.584,0c1.166,1.708-0.168,3.167-0.834,3.667s0.875,1.917-1,4.417c-0.75,0.25,0.75,1.875-1.333,3.333     c-1.167,0.583,0.583,1.542-1.25,2.833c-1.167,0-20.833,0.083-20.833,0.083l-2-1.333V3.751z" stroke="#000000"/> 		<path id="_0BCFBDB3-C48D-4BB0-A09D-857254A61E81frame2" oryx:anchors="top left" style="opacity:1;fill:none;stroke-width:2" d="M 13.5 7 L 27 7" stroke="#000000"/> 		<path id="_0BCFBDB3-C48D-4BB0-A09D-857254A61E81frame3" oryx:anchors="top left" style="opacity:1;fill:none;stroke-width:2" d="M 13.5 11 L 26 11" stroke="#000000"/> 		<path id="_0BCFBDB3-C48D-4BB0-A09D-857254A61E81frame4" oryx:anchors="top left" style="opacity:1;fill:none;stroke-width:1.5" d="M 14 14.5 L 25 14.5" stroke="#000000"/> 		<path id="_0BCFBDB3-C48D-4BB0-A09D-857254A61E81frame5" oryx:anchors="top left" style="opacity:1;fill:none;stroke-width:1.5" d="M 8.2 3.1 L 15 3.1" stroke="#000000"/> 	</g> 	 	<g id="_0BCFBDB3-C48D-4BB0-A09D-857254A61E81businessRuleTask" transform="scale(0.7,0.7) translate(8,8)" display="none"> 		<rect id="_0BCFBDB3-C48D-4BB0-A09D-857254A61E81frame6" oryx:anchors="top left" x="0" y="0" width="22" height="4" style="opacity:1;fill:#B3B1B3;fill-opacity:1;" stroke="#000000"/> 		<rect id="_0BCFBDB3-C48D-4BB0-A09D-857254A61E81frame7" oryx:anchors="top left" x="0" y="4" style="opacity:1;fill:none;" width="22" height="12" stroke="#000000"/> 		<path id="_0BCFBDB3-C48D-4BB0-A09D-857254A61E81frame8" oryx:anchors="top left" style="opacity:1;fill:none;" d="M 0 10 L 22 10" stroke="#000000"/> 		<path id="_0BCFBDB3-C48D-4BB0-A09D-857254A61E81frame9" oryx:anchors="top left" style="opacity:1; fill:none;" d="M 7 4 L 7 16" stroke="#000000"/> 	</g> 	 	<g id="_0BCFBDB3-C48D-4BB0-A09D-857254A61E81scriptTask" transform="scale(0.7,0.7) translate(8,8)" display="none"> 		<path oryx:anchors="top left" id="_0BCFBDB3-C48D-4BB0-A09D-857254A61E81frame10" style="opacity:1;fill:none;" stroke="#000000" d="M6.402,0.5h14.5c0,0-5.833,2.833-5.833,5.583s4.417,6,4.417,9.167    s-4.167,5.083-4.167,5.083H0.235c0,0,5-2.667,5-5s-4.583-6.75-4.583-9.25S6.402,0.5,6.402,0.5z"/> 		<path oryx:anchors="top left" id="_0BCFBDB3-C48D-4BB0-A09D-857254A61E81frame11" style="opacity:1;fill:none;stroke-width:1.5" d="M 3.5 4.5 L 13.5 4.5" stroke="#000000"/> 		<path oryx:anchors="top left" id="_0BCFBDB3-C48D-4BB0-A09D-857254A61E81frame12" style="opacity:1;fill:none;stroke-width:1.5" d="M 3.8 8.5 L 13.8 8.5" stroke="#000000"/> 		<path oryx:anchors="top left" id="_0BCFBDB3-C48D-4BB0-A09D-857254A61E81frame13" style="opacity:1;fill:none;stroke-width:1.5" d="M 6.3 12.5 L 16.3 12.5" stroke="#000000"/> 		<path oryx:anchors="top left" id="_0BCFBDB3-C48D-4BB0-A09D-857254A61E81frame14" style="opacity:1;fill:none;stroke-width:1.5" d="M 6.5 16.5 L 16.5 16.5" stroke="#000000"/> 	</g> 	 	<g id="_0BCFBDB3-C48D-4BB0-A09D-857254A61E81userTask" transform="scale(0.7,0.7) translate(8,8)" display="inherit"> 		<path id="_0BCFBDB3-C48D-4BB0-A09D-857254A61E81frame15" oryx:anchors="top left" style="opacity:1;fill:#F4F6F7" stroke="#000000" d="M0.585,24.167h24.083v-7.833c0,0-2.333-3.917-7.083-5.167h-9.25    c-4.417,1.333-7.833,5.75-7.833,5.75L0.585,24.167z"/> 		<path id="_0BCFBDB3-C48D-4BB0-A09D-857254A61E81frame16" oryx:anchors="top left" style="opacity:1;fill:none" d="M 6 20 L 6 24" stroke="#000000"/> 		<path id="_0BCFBDB3-C48D-4BB0-A09D-857254A61E81frame17" oryx:anchors="top left" style="opacity:1;fill:none" d="M 20 20 L 20 24" stroke="#000000"/> 		<circle id="_0BCFBDB3-C48D-4BB0-A09D-857254A61E81frame18" oryx:anchors="top left" fill="black" cx="13.002" cy="5.916" r="5.417" stroke="#000000"/> 		<path id="_0BCFBDB3-C48D-4BB0-A09D-857254A61E81frame19" oryx:anchors="top left" style="opacity:1;fill:#F0EFF0;" stroke="#000000" d="M8.043,7.083c0,0,2.814-2.426,5.376-1.807s4.624-0.693,4.624-0.693    c0.25,1.688,0.042,3.75-1.458,5.584c0,0,1.083,0.75,1.083,1.5s0.125,1.875-1,3s-5.5,1.25-6.75,0S8.668,12.834,8.668,12    s0.583-1.25,1.25-1.917C8.835,9.5,7.419,7.708,8.043,7.083z"/> 	</g> 	 	<g id="_0BCFBDB3-C48D-4BB0-A09D-857254A61E81serviceTask" transform="scale(0.7,0.7) translate(8,8)" display="none"> 		<polygon oryx:anchors="top left" id="_0BCFBDB3-C48D-4BB0-A09D-857254A61E81frame20" style="opacity:1;fill:#ffffff" stroke="#000000" points="15.392,5.064 17.954,2.502 20.347,4.895 17.786,7.455     18.729,9.732 22.353,9.732 22.353,13.115 18.731,13.115 17.788,15.392 20.351,17.955 17.958,20.347 15.397,17.786 13.12,18.729     13.12,22.353 9.737,22.353 9.737,18.731 7.46,17.788 4.897,20.35 2.506,17.958 5.066,15.397 4.124,13.12 0.5,13.12 0.5,9.737     4.121,9.737 5.065,7.461 2.503,4.898 4.895,2.506 7.455,5.066 9.732,4.125 9.732,0.5 13.116,0.5 13.116,4.121 "/> 		<circle oryx:anchors="top left" id="_0BCFBDB3-C48D-4BB0-A09D-857254A61E81frame21" style="opacity:1;fill:none" stroke="#000000" cx="11.427" cy="11.426" r="3.714"/> 		<polygon oryx:anchors="top left" id="_0BCFBDB3-C48D-4BB0-A09D-857254A61E81frame22" style="opacity:1;fill:#ffffff" stroke="#000000" points="21.392,11.064 23.954,8.502 26.347,10.895 23.786,13.455     24.729,15.732 28.353,15.732 28.353,19.115 24.731,19.115 23.788,21.392 26.351,23.955 23.958,26.347 21.397,23.786 19.12,24.729     19.12,28.353 15.737,28.353 15.737,24.731 13.46,23.788 10.897,26.35 8.506,23.958 11.066,21.397 10.124,19.12 6.5,19.12     6.5,15.737 10.121,15.737 11.065,13.461 8.503,10.898 10.895,8.506 13.455,11.066 15.732,10.125 15.732,6.5 19.116,6.5     19.116,10.121 "/> 		<circle oryx:anchors="top left" id="_0BCFBDB3-C48D-4BB0-A09D-857254A61E81frame23" style="opacity:1;fill:none;" stroke="#000000" cx="17.427" cy="17.426" r="3.714"/> 	</g> 	 	<g id="_0BCFBDB3-C48D-4BB0-A09D-857254A61E81sendTask" display="none"> 		<path id="_0BCFBDB3-C48D-4BB0-A09D-857254A61E81stframe24" oryx:anchors="left top" stroke="#FFFFFF" fill="black" stroke-width="1" d="M8,11 L8,21 L24,21 L24,11 L16,17z"/> 		<path id="_0BCFBDB3-C48D-4BB0-A09D-857254A61E81stframe25" oryx:anchors="left top" stroke="#FFFFFF" fill="black" stroke-width="1" d="M7,10 L16,17 L25 10z"/> 	</g> 	 	<g id="_0BCFBDB3-C48D-4BB0-A09D-857254A61E81receiveTask" display="none"> 		<path id="_0BCFBDB3-C48D-4BB0-A09D-857254A61E81frame26" oryx:anchors="left top" stroke="#000000" fill="none" stroke-width="1" d="M8,11 L8,21 L24,21 L24,11z M8,11 L16,17 L24,11"/> 	</g> 	 	<g id="_0BCFBDB3-C48D-4BB0-A09D-857254A61E81none" display="inherit"/>  	<g id="_0BCFBDB3-C48D-4BB0-A09D-857254A61E81sequential" display="none">         <path oryx:anchors="bottom" fill="none" stroke="#000000" stroke-width="2" d="M46,76h10M46,72h10 M46,68h10" id="_0BCFBDB3-C48D-4BB0-A09D-857254A61E81__0BCFBDB3-C48D-4BB0-A09D-857254A61E81_20"/>     </g>   </g></g><g class="children" style="overflow:hidden"/><g class="edge"/></g><g class="controls"><g class="dockers"/><g class="magnets" transform="translate(675, 129)"><g pointer-events="all" display="none" transform="translate(-7, 12)"><circle cx="8" cy="8" r="4" stroke="none" fill="red" fill-opacity="0.3"/></g><g pointer-events="all" display="none" transform="translate(-7, 32)"><circle cx="8" cy="8" r="4" stroke="none" fill="red" fill-opacity="0.3"/></g><g pointer-events="all" display="none" transform="translate(-7, 52)"><circle cx="8" cy="8" r="4" stroke="none" fill="red" fill-opacity="0.3"/></g><g pointer-events="all" display="none" transform="translate(17, 71)"><circle cx="8" cy="8" r="4" stroke="none" fill="red" fill-opacity="0.3"/></g><g pointer-events="all" display="none" transform="translate(42, 71)"><circle cx="8" cy="8" r="4" stroke="none" fill="red" fill-opacity="0.3"/></g><g pointer-events="all" display="none" transform="translate(67, 71)"><circle cx="8" cy="8" r="4" stroke="none" fill="red" fill-opacity="0.3"/></g><g pointer-events="all" display="none" transform="translate(91, 12)"><circle cx="8" cy="8" r="4" stroke="none" fill="red" fill-opacity="0.3"/></g><g pointer-events="all" display="none" transform="translate(91, 32)"><circle cx="8" cy="8" r="4" stroke="none" fill="red" fill-opacity="0.3"/></g><g pointer-events="all" display="none" transform="translate(91, 52)"><circle cx="8" cy="8" r="4" stroke="none" fill="red" fill-opacity="0.3"/></g><g pointer-events="all" display="none" transform="translate(17, -7)"><circle cx="8" cy="8" r="4" stroke="none" fill="red" fill-opacity="0.3"/></g><g pointer-events="all" display="none" transform="translate(42, -7)"><circle cx="8" cy="8" r="4" stroke="none" fill="red" fill-opacity="0.3"/></g><g pointer-events="all" display="none" transform="translate(67, -7)"><circle cx="8" cy="8" r="4" stroke="none" fill="red" fill-opacity="0.3"/></g><g pointer-events="all" display="none" transform="translate(42, 32)"><circle cx="8" cy="8" r="4" stroke="none" fill="red" fill-opacity="0.3"/></g></g></g></g><g id="_C538A324-0294-4F20-89A4-BC89AD9C0D4C" bpmn2nodeid="_CE23902A-27F4-4EC3-80E6-D78016B8CB45"><g class="stencils" transform="translate(855, 155)"><g class="me"><g pointer-events="fill" id="_C538A324-0294-4F20-89A4-BC89AD9C0D4C">      <defs id="_C538A324-0294-4F20-89A4-BC89AD9C0D4C__C538A324-0294-4F20-89A4-BC89AD9C0D4C_5"> 		<radialGradient id="_C538A324-0294-4F20-89A4-BC89AD9C0D4Cbackground" cx="10%" cy="10%" r="100%" fx="10%" fy="10%"> 			<stop offset="0%" stop-color="#ffffff" stop-opacity="1" id="_C538A324-0294-4F20-89A4-BC89AD9C0D4C__C538A324-0294-4F20-89A4-BC89AD9C0D4C_6"/> 			<stop id="_C538A324-0294-4F20-89A4-BC89AD9C0D4Cfill_el" offset="100%" stop-color="#ff6347" stop-opacity="1"/> 		</radialGradient> 	</defs> 	     <circle id="_C538A324-0294-4F20-89A4-BC89AD9C0D4Cbg_frame" cx="14" cy="14" r="14" stroke="#000000" fill="url(#_C538A324-0294-4F20-89A4-BC89AD9C0D4Cbackground) white" stroke-width="3"/> 	<text font-size="11" id="_C538A324-0294-4F20-89A4-BC89AD9C0D4Ctext_name" x="14" y="30" oryx:align="top center" stroke="black" stroke-width="0pt" letter-spacing="-0.01px" fill="#000000" text-anchor="middle" transform="rotate(0 14 30)" visibility="inherit" oryx:fontSize="11"/>   </g></g><g class="children" style="overflow:hidden"/><g class="edge"/></g><g class="controls"><g class="dockers"/><g class="magnets" transform="translate(855, 155)"><g pointer-events="all" display="none" transform="translate(6, 6)"><circle cx="8" cy="8" r="4" stroke="none" fill="red" fill-opacity="0.3"/></g></g></g></g></g><g class="edge"><g id="_2D6C0114-22F8-40DB-ADF2-3B8C99DD8E17" bpmn2nodeid="_5D5DB44A-0596-44A6-A623-A5AED7BB828B"><g class="stencils"><g class="me"><g pointer-events="painted" bpmn2nodeid="_C4C4D656-586E-4661-B790-5384A2F03D3F"><path id="_2D6C0114-22F8-40DB-ADF2-3B8C99DD8E17_1" d="M150.453125 169L269.859375 169 " stroke="#000000" fill="none" stroke-width="2" stroke-linecap="round" stroke-linejoin="round" marker-start="url(#_2D6C0114-22F8-40DB-ADF2-3B8C99DD8E17start)" marker-end="url(#_2D6C0114-22F8-40DB-ADF2-3B8C99DD8E17end)"/></g><text id="_2D6C0114-22F8-40DB-ADF2-3B8C99DD8E17text_name" font-size="12" x="164.453125" y="155" oryx:edgePosition="startTop" stroke-width="0pt" letter-spacing="-0.01px" fill="#000000" text-anchor="start" transform="rotate(360 150.453125 169)" visibility="inherit" oryx:fontSize="12"/></g><g class="children" style="overflow:hidden"/><g class="edge"/></g><g class="controls"><g class="dockers"/><g class="magnets"/></g></g><g id="_4558810E-DAE0-4DA3-A29D-9D16CA2A9041" bpmn2nodeid="_5AF3ED16-C079-4027-BD5F-D47A01C3BE3D"><g class="stencils"><g class="me"><g pointer-events="painted" bpmn2nodeid="_7C1AB632-6032-4A62-86D6-3E16B2CE6F55"><path id="_4558810E-DAE0-4DA3-A29D-9D16CA2A9041_1" d="M370.5117056010154 169.2590343876975L464.4882943989846 169.7409656123025 " stroke="#000000" fill="none" stroke-width="2" stroke-linecap="round" stroke-linejoin="round" marker-start="url(#_4558810E-DAE0-4DA3-A29D-9D16CA2A9041start)" marker-end="url(#_4558810E-DAE0-4DA3-A29D-9D16CA2A9041end)"/></g><text id="_4558810E-DAE0-4DA3-A29D-9D16CA2A9041text_name" font-size="12" x="384.5117056010154" y="155.2590343876975" oryx:edgePosition="startTop" stroke-width="0pt" letter-spacing="-0.01px" fill="#000000" text-anchor="start" transform="rotate(0.2938219346507367 370.5117056010154 169.2590343876975)" visibility="inherit" oryx:fontSize="12"/></g><g class="children" style="overflow:hidden"/><g class="edge"/></g><g class="controls"><g class="dockers"/><g class="magnets"/></g></g><g id="_A38020F8-3C8F-4FB3-AC32-2FFE2D75E779" bpmn2nodeid="_C791FFF8-B529-49AC-8617-901F886DC7D7"><g class="stencils"><g class="me"><g pointer-events="painted" bpmn2nodeid="_80F13516-58C3-40B5-BBE6-010BB0ECAFD3"><path id="_A38020F8-3C8F-4FB3-AC32-2FFE2D75E779_1" d="M565.2187386623243 169.76086314922702L674.7812613376757 169.23913685077298 " stroke="#000000" fill="none" stroke-width="2" stroke-linecap="round" stroke-linejoin="round" marker-start="url(#_A38020F8-3C8F-4FB3-AC32-2FFE2D75E779start)" marker-end="url(#_A38020F8-3C8F-4FB3-AC32-2FFE2D75E779end)"/></g><text id="_A38020F8-3C8F-4FB3-AC32-2FFE2D75E779text_name" font-size="12" x="579.2187386623243" y="155.76086314922702" oryx:edgePosition="startTop" stroke-width="0pt" letter-spacing="-0.01px" fill="#000000" text-anchor="start" transform="rotate(359.7271650169319 565.2187386623243 169.76086314922702)" visibility="inherit" oryx:fontSize="12"/></g><g class="children" style="overflow:hidden"/><g class="edge"/></g><g class="controls"><g class="dockers"/><g class="magnets"/></g></g><g id="_15390FC8-94FA-4A5C-A978-60D0CA8C694F" bpmn2nodeid="_F0C13A1A-3402-4A47-879A-136D2F314173"><g class="stencils"><g class="me"><g pointer-events="painted" bpmn2nodeid="_B50774DD-7B94-4FB6-A673-CF347F11DD4B"><path id="_15390FC8-94FA-4A5C-A978-60D0CA8C694F_1" d="M775.5 169L854.5 169 " stroke="#000000" fill="none" stroke-width="2" stroke-linecap="round" stroke-linejoin="round" marker-start="url(#_15390FC8-94FA-4A5C-A978-60D0CA8C694Fstart)" marker-end="url(#_15390FC8-94FA-4A5C-A978-60D0CA8C694Fend)"/></g><text id="_15390FC8-94FA-4A5C-A978-60D0CA8C694Ftext_name" font-size="12" x="789.5" y="155" oryx:edgePosition="startTop" stroke-width="0pt" letter-spacing="-0.01px" fill="#000000" text-anchor="start" transform="rotate(360 775.5 169)" visibility="inherit" oryx:fontSize="12"/></g><g class="children" style="overflow:hidden"/><g class="edge"/></g><g class="controls"><g class="dockers"/><g class="magnets"/></g></g></g><text id="_C907FFB4-DC42-4AD7-8ACB-766B64C05800" style="stroke-width:1;fill:rgb(177,194,214);font-family:arial;font-weight:bold" font-size="12" onclick="ORYX.Plugins.CanvasTitle.openTextualAnalysis()" onmouseover="ORYX.Plugins.CanvasTitle.addToolTip('_C907FFB4-DC42-4AD7-8ACB-766B64C05800')" transform="translate(10, 20)">Suma v.1.0 (com.myspace.prueba2.Suma)</text></g></g></svg>